vt 0 0
v -90.000000 90.000000 25.024704
v 1110.000000 88.430199 24.926004
v 1110.000000 90.000000 25.024704
v -90.000000 88.430199 24.926004
v 1110.000000 86.885201 24.631205
v -90.000000 86.885201 24.631205
v 1110.000000 85.389297 24.145205
v -90.000000 85.389297 24.145205
v 1110.000000 83.966202 23.475504
v -90.000000 83.966202 23.475504
v 1110.000000 82.638199 22.632704
v -90.000000 82.638199 22.632704
v 1110.000000 81.426201 21.630104
v -90.000000 81.426201 21.630104
v -90.000000 80.349503 20.483604
v 1110.000000 80.349503 20.483604
v -90.000000 79.425003 19.211103
v 1110.000000 79.425003 19.211103
v -90.000000 78.667297 17.832804
v 1110.000000 78.667297 17.832804
v -90.000000 78.088303 16.370304
v 1110.000000 78.088303 16.370304
v -90.000000 77.697098 14.846904
v 1110.000000 77.697098 14.846904
v -90.000000 77.500000 13.286404
v 1110.000000 77.500000 13.286404
v -90.000000 77.500000 11.713604
v 1110.000000 77.500000 11.713604
v -90.000000 77.697098 10.153104
v 1110.000000 77.697098 10.153104
v -90.000000 78.088303 8.629654
v 1110.000000 78.088303 8.629654
v -90.000000 78.667297 7.167243
v 1110.000000 78.667297 7.167243
v -90.000000 79.425003 5.788923
v 1110.000000 79.425003 5.788923
v -90.000000 80.349503 4.516453
v 1110.000000 80.349503 4.516453
v -90.000000 81.426201 3.369884
v 1110.000000 81.426201 3.369884
v 1110.000000 82.638199 2.367294
v -90.000000 82.638199 2.367294
v 1110.000000 83.966202 1.524514
v -90.000000 83.966202 1.524514
v 1110.000000 85.389297 0.854819
v -90.000000 85.389297 0.854819
v 1110.000000 86.885201 0.368776
v -90.000000 86.885201 0.368776
v 1110.000000 88.430199 0.074050
v -90.000000 88.430199 0.074050
v 1110.000000 90.000000 -0.024711
v -90.000000 90.000000 -0.024711
v 1110.000000 91.569801 0.074051
v -90.000000 91.569801 0.074051
v 1110.000000 93.114799 0.368776
v -90.000000 93.114799 0.368776
v 1110.000000 94.610703 0.854819
v -90.000000 94.610703 0.854819
v 1110.000000 96.033798 1.524514
v -90.000000 96.033798 1.524514
v 1110.000000 97.361801 2.367294
v -90.000000 97.361801 2.367294
v 1110.000000 98.573799 3.369884
v -90.000000 98.573799 3.369884
v -90.000000 99.650497 4.516454
v 1110.000000 99.650497 4.516454
v -90.000000 100.574997 5.788924
v 1110.000000 100.574997 5.788924
v -90.000000 101.333000 7.167244
v 1110.000000 101.333000 7.167244
v -90.000000 101.912003 8.629655
v 1110.000000 101.912003 8.629655
v -90.000000 102.303001 10.153105
v 1110.000000 102.303001 10.153105
v -90.000000 102.500000 11.713605
v 1110.000000 102.500000 11.713605
v -90.000000 102.500000 13.286405
v 1110.000000 102.500000 13.286405
v -90.000000 102.303001 14.846905
v 1110.000000 102.303001 14.846905
v -90.000000 101.912003 16.370304
v 1110.000000 101.912003 16.370304
v -90.000000 101.333000 17.832804
v 1110.000000 101.333000 17.832804
v -90.000000 100.574997 19.211103
v 1110.000000 100.574997 19.211103
v -90.000000 99.650497 20.483604
v 1110.000000 99.650497 20.483604
v -90.000000 98.573799 21.630104
v 1110.000000 98.573799 21.630104
v 1110.000000 97.361801 22.632704
v -90.000000 97.361801 22.632704
v 1110.000000 96.033798 23.475504
v -90.000000 96.033798 23.475504
v 1110.000000 94.610703 24.145205
v -90.000000 94.610703 24.145205
v 1110.000000 93.114799 24.631205
v -90.000000 93.114799 24.631205
v 1110.000000 91.569801 24.926004
v -90.000000 91.569801 24.926004
vn 0.0000 -0.0628 0.9980
vn 0.0000 -0.0627 0.9980
vn 0.0000 -0.1874 0.9823
vn 0.0000 -0.3090 0.9511
vn 0.0000 -0.4258 0.9048
vn 0.0000 -0.5358 0.8443
vn 0.0000 -0.6374 0.7705
vn 0.0000 -0.7289 0.6846
vn 0.0000 -0.7290 0.6846
vn 0.0000 -0.8090 0.5878
vn 0.0000 -0.8763 0.4817
vn 0.0000 -0.9298 0.3681
vn 0.0000 -0.9686 0.2487
vn 0.0000 -0.9921 0.1253
vn 0.0000 -1.0000 0.0000
vn 0.0000 -0.9921 -0.1253
vn 0.0000 -0.9686 -0.2487
vn 0.0000 -0.9298 -0.3681
vn 0.0000 -0.8763 -0.4817
vn 0.0000 -0.8090 -0.5878
vn 0.0000 -0.7290 -0.6845
vn 0.0000 -0.6374 -0.7705
vn 0.0000 -0.5358 -0.8443
vn 0.0000 -0.4258 -0.9048
vn 0.0000 -0.3090 -0.9511
vn 0.0000 -0.1874 -0.9823
vn 0.0000 -0.0628 -0.9980
vn 0.0000 0.0628 -0.9980
vn 0.0000 0.1874 -0.9823
vn 0.0000 0.3090 -0.9511
vn 0.0000 0.4258 -0.9048
vn 0.0000 0.5358 -0.8443
vn 0.0000 0.6374 -0.7705
vn 0.0000 0.7290 -0.6845
vn 0.0000 0.8090 -0.5878
vn 0.0000 0.8762 -0.4819
vn 0.0000 0.9298 -0.3681
vn 0.0000 0.9686 -0.2486
vn 0.0000 0.9921 -0.1252
vn 0.0000 0.9921 -0.1253
vn 0.0000 1.0000 0.0000
vn 0.0000 0.9921 0.1253
vn 0.0000 0.9921 0.1252
vn 0.0000 0.9686 0.2486
vn 0.0000 0.9298 0.3681
vn 0.0000 0.8762 0.4819
vn 0.0000 0.8090 0.5878
vn 0.0000 0.7289 0.6846
vn 0.0000 0.7290 0.6846
vn 0.0000 0.6374 0.7705
vn 0.0000 0.5358 0.8443
vn 0.0000 0.4258 0.9048
vn 0.0000 0.3090 0.9511
vn 0.0000 0.1874 0.9823
vn 0.0000 0.0627 0.9980
vn 0.0000 0.0628 0.9980
vn -1.0000 0.0000 0.0000
vn 1.0000 0.0008 0.0000
vn 1.0000 0.0003 0.0000
vn 1.0000 0.0000 0.0000
vn 1.0000 0.0002 0.0000
vn 1.0000 -0.0004 0.0000
vn 1.0000 -0.0002 0.0000
vn 1.0000 0.0001 0.0000
vn 1.0000 -0.0001 0.0000
vn 1.0000 0.0005 0.0000
vn 1.0000 -0.0008 0.0000
f 1//1 2//1 3//1
f 2//2 1//2 4//2
f 4//3 5//3 2//3
f 5//3 4//3 6//3
f 6//4 7//4 5//4
f 7//4 6//4 8//4
f 8//5 9//5 7//5
f 9//5 8//5 10//5
f 10//6 11//6 9//6
f 11//6 10//6 12//6
f 12//7 13//7 11//7
f 13//7 12//7 14//7
f 15//8 13//8 14//8
f 13//9 15//9 16//9
f 17//10 16//10 15//10
f 16//10 17//10 18//10
f 19//11 18//11 17//11
f 18//11 19//11 20//11
f 21//12 20//12 19//12
f 20//12 21//12 22//12
f 23//13 22//13 21//13
f 22//13 23//13 24//13
f 25//14 24//14 23//14
f 24//14 25//14 26//14
f 27//15 26//15 25//15
f 26//15 27//15 28//15
f 29//16 28//16 27//16
f 28//16 29//16 30//16
f 31//17 30//17 29//17
f 30//17 31//17 32//17
f 33//18 32//18 31//18
f 32//18 33//18 34//18
f 35//19 34//19 33//19
f 34//19 35//19 36//19
f 37//20 36//20 35//20
f 36//20 37//20 38//20
f 39//21 38//21 37//21
f 38//21 39//21 40//21
f 39//22 41//22 40//22
f 41//22 39//22 42//22
f 42//23 43//23 41//23
f 43//23 42//23 44//23
f 44//24 45//24 43//24
f 45//24 44//24 46//24
f 46//25 47//25 45//25
f 47//25 46//25 48//25
f 48//26 49//26 47//26
f 49//26 48//26 50//26
f 50//27 51//27 49//27
f 51//27 50//27 52//27
f 52//28 53//28 51//28
f 53//28 52//28 54//28
f 54//29 55//29 53//29
f 55//29 54//29 56//29
f 56//30 57//30 55//30
f 57//30 56//30 58//30
f 58//31 59//31 57//31
f 59//31 58//31 60//31
f 60//32 61//32 59//32
f 61//32 60//32 62//32
f 62//33 63//33 61//33
f 63//33 62//33 64//33
f 63//34 65//34 66//34
f 65//34 63//34 64//34
f 66//35 67//35 68//35
f 67//35 66//35 65//35
f 68//36 69//36 70//36
f 69//36 68//36 67//36
f 70//37 71//37 72//37
f 71//37 70//37 69//37
f 72//38 73//38 74//38
f 73//38 72//38 71//38
f 74//39 75//39 76//39
f 75//40 74//40 73//40
f 76//41 77//41 78//41
f 77//41 76//41 75//41
f 78//42 79//42 80//42
f 79//43 78//43 77//43
f 80//44 81//44 82//44
f 81//44 80//44 79//44
f 82//45 83//45 84//45
f 83//45 82//45 81//45
f 84//46 85//46 86//46
f 85//46 84//46 83//46
f 86//47 87//47 88//47
f 87//47 86//47 85//47
f 88//48 89//48 90//48
f 89//49 88//49 87//49
f 89//50 91//50 90//50
f 91//50 89//50 92//50
f 92//51 93//51 91//51
f 93//51 92//51 94//51
f 94//52 95//52 93//52
f 95//52 94//52 96//52
f 96//53 97//53 95//53
f 97//53 96//53 98//53
f 98//54 99//54 97//54
f 99//54 98//54 100//54
f 100//55 3//55 99//55
f 3//56 100//56 1//56
f 73//57 77//57 75//57
f 73//57 79//57 77//57
f 71//57 79//57 73//57
f 71//57 81//57 79//57
f 69//57 81//57 71//57
f 69//57 83//57 81//57
f 67//57 83//57 69//57
f 67//57 85//57 83//57
f 65//57 85//57 67//57
f 65//57 87//57 85//57
f 64//57 87//57 65//57
f 64//57 89//57 87//57
f 62//57 89//57 64//57
f 62//57 92//57 89//57
f 60//57 92//57 62//57
f 60//57 94//57 92//57
f 58//57 94//57 60//57
f 58//57 96//57 94//57
f 56//57 96//57 58//57
f 56//57 98//57 96//57
f 54//57 98//57 56//57
f 54//57 100//57 98//57
f 52//57 100//57 54//57
f 52//57 1//57 100//57
f 50//57 1//57 52//57
f 50//57 4//57 1//57
f 48//57 4//57 50//57
f 48//57 6//57 4//57
f 46//57 6//57 48//57
f 46//57 8//57 6//57
f 44//57 8//57 46//57
f 44//57 10//57 8//57
f 42//57 10//57 44//57
f 42//57 12//57 10//57
f 39//57 12//57 42//57
f 39//57 14//57 12//57
f 37//57 14//57 39//57
f 37//57 15//57 14//57
f 35//57 15//57 37//57
f 35//57 17//57 15//57
f 33//57 17//57 35//57
f 33//57 19//57 17//57
f 31//57 19//57 33//57
f 31//57 21//57 19//57
f 29//57 21//57 31//57
f 29//57 23//57 21//57
f 27//57 23//57 29//57
f 23//57 27//57 25//57
f 80//58 76//58 78//58
f 80//59 74//59 76//59
f 82//60 74//60 80//60
f 82//61 72//61 74//61
f 84//62 72//62 82//62
f 84//61 70//61 72//61
f 86//63 70//63 84//63
f 86//60 68//60 70//60
f 88//60 68//60 86//60
f 88//64 66//64 68//64
f 90//63 66//63 88//63
f 90//64 63//64 66//64
f 91//60 63//60 90//60
f 91//61 61//61 63//61
f 93//60 61//60 91//60
f 93//65 59//65 61//65
f 95//60 59//60 93//60
f 95//64 57//64 59//64
f 97//60 57//60 95//60
f 97//65 55//65 57//65
f 99//60 55//60 97//60
f 99//60 53//60 55//60
f 3//60 53//60 99//60
f 3//64 51//64 53//64
f 2//60 51//60 3//60
f 2//65 49//65 51//65
f 5//64 49//64 2//64
f 5//65 47//65 49//65
f 7//64 47//64 5//64
f 7//60 45//60 47//60
f 9//60 45//60 7//60
f 9//60 43//60 45//60
f 11//60 43//60 9//60
f 11//60 41//60 43//60
f 13//60 41//60 11//60
f 13//60 40//60 41//60
f 16//60 40//60 13//60
f 16//59 38//59 40//59
f 18//60 38//60 16//60
f 18//65 36//65 38//65
f 20//60 36//60 18//60
f 20//60 34//60 36//60
f 22//60 34//60 20//60
f 22//66 32//66 34//66
f 24//60 32//60 22//60
f 24//64 30//64 32//64
f 26//60 30//60 24//60
f 30//67 26//67 28//67
