vt 0 0
v -54.024502 21.033789 260.000000
v -54.867298 22.361795 100.000000
v -54.867298 22.361788 260.000000
v -54.024502 21.033796 100.000000
v -61.129700 26.911695 100.000000
v -62.653099 27.302889 260.000000
v -61.129700 26.911688 260.000000
v -62.653099 27.302896 100.000000
v -59.667198 26.332697 100.000000
v -59.667198 26.332689 260.000000
v -68.870300 26.911695 100.000000
v -70.332802 26.332689 260.000000
v -68.870300 26.911688 260.000000
v -70.332802 26.332697 100.000000
v -76.645203 19.610701 0.000001
v -75.975502 21.033787 300.000000
v -75.975502 21.033800 0.000001
v -76.645203 19.610687 300.000000
v -52.868801 11.885188 260.000000
v -52.574001 13.430195 100.000000
v -52.574001 13.430188 260.000000
v -52.868801 11.885195 100.000000
v -64.213600 27.499989 260.000000
v -64.213600 27.499996 100.000000
v -57.016399 24.650496 100.000000
v -58.288898 25.574989 260.000000
v -57.016399 24.650488 260.000000
v -58.288898 25.574997 100.000000
v -77.426003 16.569799 0.000001
v -77.131203 18.114786 300.000000
v -77.131203 18.114799 0.000001
v -77.426003 16.569786 300.000000
v -75.132698 22.361799 0.000001
v -74.130096 23.573795 100.000000
v -74.130096 23.573799 0.000001
v -75.132698 22.361786 300.000000
v -74.130096 23.573788 260.000000
v -74.130096 23.573786 300.000000
v -65.786400 27.499996 100.000000
v -67.346901 27.302889 260.000000
v -65.786400 27.499989 260.000000
v -67.346901 27.302896 100.000000
v -72.983597 24.650496 100.000000
v -72.983597 24.650488 260.000000
v -52.475300 14.999989 260.000000
v -52.574001 16.569796 100.000000
v -52.574001 16.569788 260.000000
v -52.475300 14.999995 100.000000
v -53.354801 10.389289 260.000000
v -53.354801 10.389296 100.000000
v -58.288898 4.425030 0.000000
v -57.016399 5.349527 300.000000
v -58.288898 4.425017 300.000000
v -57.016399 5.349540 0.000000
v -55.869900 23.573795 100.000000
v -55.869900 23.573788 260.000000
v -77.524696 15.000000 0.000001
v -77.524696 14.999987 300.000000
v -2.574050 66.569786 300.000000
v -2.574050 63.430187 300.000000
v -2.475290 64.999985 300.000000
v -2.868770 68.114784 300.000000
v -2.868770 61.885189 300.000000
v -3.354820 69.610687 300.000000
v -3.354820 60.389290 300.000000
v -4.024510 71.033783 300.000000
v -4.024510 58.966190 300.000000
v -4.867290 72.361786 300.000000
v -4.867290 57.638187 300.000000
v -5.869880 73.573784 300.000000
v -5.869880 56.426189 300.000000
v -7.016450 74.650482 300.000000
v -8.288920 75.574982 300.000000
v -9.667240 76.332687 300.000000
v -11.129700 76.911682 300.000000
v -12.653100 77.302887 300.000000
v -14.213600 77.499985 300.000000
v -15.786400 77.499985 300.000000
v -17.346901 77.302887 300.000000
v -18.870300 76.911682 300.000000
v -20.332800 76.332687 300.000000
v -21.711100 75.574982 300.000000
v -22.983601 74.650482 300.000000
v -24.130100 73.573784 300.000000
v -55.869900 6.426227 300.000000
v -59.667198 3.667287 300.000000
v -61.129700 3.088277 300.000000
v -62.653099 2.697117 300.000000
v -64.213600 2.499987 300.000000
v -65.786400 2.499987 300.000000
v -67.346901 2.697117 300.000000
v -68.870300 3.088277 300.000000
v -70.332802 3.667287 300.000000
v -71.711098 4.425017 300.000000
v -72.983597 5.349527 300.000000
v -74.130096 6.426227 300.000000
v -75.132698 7.638147 300.000000
v -75.975502 8.966157 300.000000
v -76.645203 10.389287 300.000000
v -77.131203 11.885186 300.000000
v -77.426003 13.430186 300.000000
v -71.711098 25.574997 100.000000
v -71.711098 25.574989 260.000000
v -54.867298 7.638149 260.000000
v -54.024502 8.966166 100.000000
v -54.024502 8.966159 260.000000
v -54.867298 7.638156 100.000000
v -65.786400 2.500000 0.000000
v -64.213600 2.500000 0.000000
v -2.574050 63.430199 0.000003
v -2.574050 66.569801 0.000003
v -2.475290 65.000000 0.000003
v -2.868770 61.885201 0.000003
v -2.868770 68.114799 0.000003
v -3.354820 60.389301 0.000003
v -3.354820 69.610703 0.000003
v -4.024510 58.966202 0.000003
v -4.024510 71.033798 0.000003
v -4.867290 57.638199 0.000003
v -4.867290 72.361801 0.000003
v -5.869880 56.426201 0.000002
v -5.869880 73.573799 0.000003
v -7.016450 74.650497 0.000003
v -8.288920 75.574997 0.000003
v -9.667240 76.332703 0.000003
v -11.129700 76.911697 0.000003
v -12.653100 77.302902 0.000003
v -14.213600 77.500000 0.000003
v -15.786400 77.500000 0.000003
v -17.346901 77.302902 0.000003
v -18.870300 76.911697 0.000003
v -20.332800 76.332703 0.000003
v -21.711100 75.574997 0.000003
v -22.983601 74.650497 0.000003
v -24.130100 73.573799 0.000003
v -55.869900 6.426240 0.000000
v -59.667198 3.667300 0.000000
v -61.129700 3.088290 0.000000
v -62.653099 2.697130 0.000000
v -67.346901 2.697130 0.000000
v -68.870300 3.088290 0.000000
v -70.332802 3.667300 0.000000
v -71.711098 4.425030 0.000000
v -72.983597 5.349540 0.000000
v -74.130096 6.426240 0.000000
v -75.132698 7.638160 0.000000
v -75.975502 8.966170 0.000000
v -76.645203 10.389300 0.000000
v -77.131203 11.885200 0.000001
v -77.426003 13.430200 0.000001
v -53.354801 19.610689 260.000000
v -53.354801 19.610697 100.000000
v -52.868801 18.114788 260.000000
v -52.868801 18.114796 100.000000
v -55.869900 6.426229 260.000000
v -55.869900 6.426236 100.000000
v -27.524700 64.999992 100.000000
v -27.426001 66.569794 260.000000
v -27.426001 66.569794 100.000000
v -27.524700 64.999992 260.000000
v -15.786400 52.499996 100.000000
v -14.213600 52.499989 260.000000
v -15.786400 52.499989 260.000000
v -14.213600 52.499996 100.000000
v -5.869880 56.426189 260.000000
v -5.869880 56.426197 100.000000
v -24.130100 73.573792 260.000000
v -24.130100 73.573792 100.000000
v -25.975500 71.033791 100.000000
v -25.132700 72.361794 260.000000
v -25.132700 72.361794 100.000000
v -25.975500 71.033791 260.000000
v -27.131201 68.114792 100.000000
v -26.645201 69.610695 260.000000
v -26.645201 69.610695 100.000000
v -27.131201 68.114792 260.000000
v -25.975500 58.966198 100.000000
v -26.645201 60.389290 260.000000
v -26.645201 60.389297 100.000000
v -25.975500 58.966190 260.000000
v -8.288920 54.424995 100.000000
v -7.016450 55.349487 260.000000
v -8.288920 54.424988 260.000000
v -7.016450 55.349495 100.000000
v -9.667240 53.667297 100.000000
v -9.667240 53.667290 260.000000
v -20.332800 53.667297 100.000000
v -18.870300 53.088287 260.000000
v -20.332800 53.667290 260.000000
v -18.870300 53.088295 100.000000
v -27.131201 61.885189 260.000000
v -27.131201 61.885197 100.000000
v -11.129700 53.088295 100.000000
v -11.129700 53.088287 260.000000
v -17.346901 52.697098 100.000000
v -17.346901 52.697090 260.000000
v -22.983601 55.349495 100.000000
v -21.711100 54.424988 260.000000
v -22.983601 55.349487 260.000000
v -21.711100 54.424995 100.000000
v -24.130100 56.426197 100.000000
v -24.130100 56.426189 260.000000
v -25.132700 57.638187 260.000000
v -25.132700 57.638195 100.000000
v -27.426001 63.430187 260.000000
v -27.426001 63.430195 100.000000
v -12.653100 52.697098 100.000000
v -12.653100 52.697090 260.000000
vn 0.8443 0.5358 0.0000
vn 0.2487 0.9686 0.0000
vn 0.3681 0.9298 0.0000
vn -0.3681 0.9298 0.0000
vn -0.9048 0.4258 0.0000
vn 0.9823 -0.1874 -0.0000
vn 0.1253 0.9921 0.0000
vn 0.5878 0.8090 0.0000
vn -0.9823 0.1874 0.0000
vn -0.7705 0.6374 0.0000
vn -0.1253 0.9921 0.0000
vn -0.6846 0.7290 0.0000
vn -0.6846 0.7289 0.0000
vn 0.9980 0.0627 0.0000
vn 0.9980 0.0628 0.0000
vn 0.9511 -0.3090 -0.0000
vn 0.5878 -0.8090 -0.0000
vn 0.6846 0.7290 0.0000
vn 0.6846 0.7289 0.0000
vn 0.7705 0.6374 0.0000
vn 0.0000 1.0000 0.0000
vn 0.4817 0.8763 0.0000
vn -0.9980 0.0627 0.0000
vn -0.0002 0.0000 1.0000
vn 0.0001 0.0000 1.0000
vn -0.0001 0.0000 1.0000
vn 0.0000 0.0000 1.0000
vn -0.9511 0.3090 0.0000
vn -0.8443 0.5358 0.0000
vn -0.2487 0.9686 0.0000
vn -0.5878 0.8090 0.0000
vn -0.4817 0.8763 0.0000
vn 0.9980 -0.0628 -0.0000
vn 0.9980 -0.0627 -0.0000
vn 0.8443 -0.5358 -0.0000
vn 0.0000 -1.0000 -0.0000
vn 0.0000 0.0000 -1.0000
vn 0.1253 -0.9921 -0.0000
vn 0.9048 0.4258 0.0000
vn 0.9511 0.3090 0.0000
vn 0.9823 0.1874 0.0000
vn -0.7705 -0.6374 -0.0000
vn -0.9048 -0.4258 -0.0000
vn 0.4818 -0.8763 -0.0000
vn 0.6846 -0.7290 -0.0000
vn 0.6846 -0.7289 -0.0000
vn 0.9048 -0.4258 -0.0000
vn -0.5878 -0.8090 -0.0000
vn -0.3681 -0.9298 -0.0000
vn -0.2487 -0.9686 -0.0000
vn -0.1253 -0.9921 -0.0000
vn -0.9823 -0.1874 -0.0000
vn -0.9980 -0.0627 -0.0000
vn -0.8443 -0.5358 -0.0000
vn 0.2487 -0.9686 -0.0000
vn 0.3681 -0.9298 -0.0000
vn 0.7705 -0.6374 -0.0000
vn -0.4818 -0.8763 -0.0000
vn -0.9511 -0.3090 -0.0000
vn -0.6846 -0.7289 -0.0000
vn -0.6846 -0.7290 -0.0000
vn -0.9980 0.0628 0.0000
vn 0.6845 0.7290 0.0000
vn 0.4817 -0.8763 -0.0000
vn 0.6845 -0.7290 0.0000
vn -0.9980 -0.0628 0.0000
vn -0.4817 -0.8763 -0.0000
vn -0.7071 0.7071 0.0000
vn 0.7071 -0.7071 -0.0000
vn 0.0003 0.0000 1.0000
vn -0.0001 0.0000 -1.0000
vn 0.0001 0.0000 -1.0000
vn -0.0002 0.0000 -1.0000
f 1//1 2//1 3//1
f 2//1 1//1 4//1
f 5//2 6//2 7//2
f 6//2 5//2 8//2
f 9//3 7//3 10//3
f 7//3 9//3 5//3
f 11//4 12//4 13//4
f 12//4 11//4 14//4
f 15//5 16//5 17//5
f 16//5 15//5 18//5
f 19//6 20//6 21//6
f 20//6 19//6 22//6
f 8//7 23//7 6//7
f 23//7 8//7 24//7
f 25//8 26//8 27//8
f 26//8 25//8 28//8
f 29//9 30//9 31//9
f 30//9 29//9 32//9
f 33//10 34//10 35//10
f 36//10 34//10 33//10
f 34//10 36//10 37//10
f 37//10 36//10 38//10
f 39//11 40//11 41//11
f 40//11 39//11 42//11
f 43//12 37//12 44//12
f 37//13 43//13 34//13
f 45//14 46//14 47//14
f 46//15 45//15 48//15
f 49//16 22//16 19//16
f 22//16 49//16 50//16
f 51//17 52//17 53//17
f 52//17 51//17 54//17
f 55//18 27//18 56//18
f 27//19 55//19 25//19
f 3//20 55//20 56//20
f 55//20 3//20 2//20
f 24//21 41//21 23//21
f 41//21 24//21 39//21
f 28//22 10//22 26//22
f 10//22 28//22 9//22
f 57//23 32//23 29//23
f 32//23 57//23 58//23
f 59//24 60//24 61//24
f 62//25 60//25 59//25
f 62//26 63//26 60//26
f 64//27 63//27 62//27
f 64//27 65//27 63//27
f 66//27 65//27 64//27
f 66//27 67//27 65//27
f 68//27 67//27 66//27
f 68//27 69//27 67//27
f 70//26 69//26 68//26
f 70//27 71//27 69//27
f 72//27 71//27 70//27
f 73//27 71//27 72//27
f 74//27 71//27 73//27
f 75//27 71//27 74//27
f 76//27 71//27 75//27
f 77//27 71//27 76//27
f 78//27 71//27 77//27
f 79//27 71//27 78//27
f 80//27 71//27 79//27
f 81//27 71//27 80//27
f 82//27 71//27 81//27
f 83//27 71//27 82//27
f 84//27 71//27 83//27
f 84//27 85//27 71//27
f 38//27 85//27 84//27
f 85//27 38//27 52//27
f 52//27 38//27 53//27
f 53//27 38//27 86//27
f 86//27 38//27 87//27
f 87//27 38//27 88//27
f 88//27 38//27 89//27
f 89//27 38//27 90//27
f 90//27 38//27 91//27
f 91//27 38//27 92//27
f 92//27 38//27 93//27
f 93//27 38//27 94//27
f 94//27 38//27 95//27
f 38//25 96//25 95//25
f 36//27 96//27 38//27
f 36//27 97//27 96//27
f 16//27 97//27 36//27
f 16//27 98//27 97//27
f 18//27 98//27 16//27
f 18//27 99//27 98//27
f 30//26 99//26 18//26
f 30//25 100//25 99//25
f 32//27 100//27 30//27
f 32//26 101//26 100//26
f 101//27 32//27 58//27
f 31//28 18//28 15//28
f 18//28 31//28 30//28
f 17//29 36//29 33//29
f 36//29 17//29 16//29
f 42//30 13//30 40//30
f 13//30 42//30 11//30
f 102//31 44//31 103//31
f 44//31 102//31 43//31
f 14//32 103//32 12//32
f 103//32 14//32 102//32
f 21//33 48//33 45//33
f 48//34 21//34 20//34
f 104//35 105//35 106//35
f 105//35 104//35 107//35
f 108//36 89//36 90//36
f 89//36 108//36 109//36
f 110//37 111//37 112//37
f 113//37 111//37 110//37
f 113//37 114//37 111//37
f 115//37 114//37 113//37
f 115//37 116//37 114//37
f 117//37 116//37 115//37
f 117//37 118//37 116//37
f 119//37 118//37 117//37
f 119//37 120//37 118//37
f 121//37 120//37 119//37
f 121//37 122//37 120//37
f 121//37 123//37 122//37
f 121//37 124//37 123//37
f 121//37 125//37 124//37
f 121//37 126//37 125//37
f 121//37 127//37 126//37
f 121//37 128//37 127//37
f 121//37 129//37 128//37
f 121//37 130//37 129//37
f 121//37 131//37 130//37
f 121//37 132//37 131//37
f 121//37 133//37 132//37
f 121//37 134//37 133//37
f 121//37 135//37 134//37
f 136//37 135//37 121//37
f 35//37 136//37 54//37
f 35//37 54//37 51//37
f 35//37 51//37 137//37
f 35//37 137//37 138//37
f 35//37 138//37 139//37
f 35//37 139//37 109//37
f 35//37 109//37 108//37
f 35//37 108//37 140//37
f 35//37 140//37 141//37
f 35//37 141//37 142//37
f 35//37 142//37 143//37
f 35//37 143//37 144//37
f 35//37 144//37 145//37
f 136//37 35//37 135//37
f 146//37 35//37 145//37
f 146//37 33//37 35//37
f 147//37 33//37 146//37
f 147//37 17//37 33//37
f 148//37 17//37 147//37
f 148//37 15//37 17//37
f 149//37 15//37 148//37
f 149//37 31//37 15//37
f 150//37 31//37 149//37
f 150//37 29//37 31//37
f 29//37 150//37 57//37
f 109//38 88//38 89//38
f 88//38 109//38 139//38
f 151//39 4//39 1//39
f 4//39 151//39 152//39
f 153//40 152//40 151//40
f 152//40 153//40 154//40
f 47//41 154//41 153//41
f 154//41 47//41 46//41
f 145//42 97//42 146//42
f 97//42 145//42 96//42
f 147//43 99//43 148//43
f 99//43 147//43 98//43
f 137//44 53//44 86//44
f 53//44 137//44 51//44
f 52//45 155//45 85//45
f 52//45 156//45 155//45
f 54//46 156//46 52//46
f 156//46 54//46 136//46
f 106//47 50//47 49//47
f 50//47 106//47 105//47
f 144//48 94//48 95//48
f 94//48 144//48 143//48
f 142//49 92//49 93//49
f 92//49 142//49 141//49
f 141//50 91//50 92//50
f 91//50 141//50 140//50
f 140//51 90//51 91//51
f 90//51 140//51 108//51
f 149//52 101//52 150//52
f 101//52 149//52 100//52
f 150//53 58//53 57//53
f 58//53 150//53 101//53
f 146//54 98//54 147//54
f 98//54 146//54 97//54
f 139//55 87//55 88//55
f 87//55 139//55 138//55
f 138//56 86//56 87//56
f 86//56 138//56 137//56
f 155//57 107//57 104//57
f 107//57 155//57 156//57
f 143//58 93//58 94//58
f 93//58 143//58 142//58
f 148//59 100//59 149//59
f 100//59 148//59 99//59
f 145//60 95//60 96//60
f 95//61 145//61 144//61
f 61//15 111//15 59//15
f 111//15 61//15 112//15
f 157//23 158//23 159//23
f 158//62 157//62 160//62
f 128//21 78//21 77//21
f 78//21 128//21 129//21
f 161//36 162//36 163//36
f 162//36 161//36 164//36
f 165//57 69//57 71//57
f 166//57 69//57 165//57
f 69//57 166//57 119//57
f 119//57 166//57 121//57
f 122//63 72//63 70//63
f 72//63 122//63 123//63
f 83//13 167//13 84//13
f 83//12 168//12 167//12
f 134//13 168//13 83//13
f 168//13 134//13 135//13
f 131//4 81//4 80//4
f 81//4 131//4 132//4
f 64//39 118//39 66//39
f 118//39 64//39 116//39
f 59//41 114//41 62//41
f 114//41 59//41 111//41
f 66//1 120//1 68//1
f 120//1 66//1 118//1
f 125//3 75//3 74//3
f 75//3 125//3 126//3
f 126//2 76//2 75//2
f 76//2 126//2 127//2
f 123//8 73//8 72//8
f 73//8 123//8 124//8
f 169//29 170//29 171//29
f 170//29 169//29 172//29
f 171//10 167//10 168//10
f 167//10 171//10 170//10
f 173//28 174//28 175//28
f 174//28 173//28 176//28
f 133//31 83//31 82//31
f 83//31 133//31 134//31
f 129//11 79//11 78//11
f 79//11 129//11 130//11
f 62//40 116//40 64//40
f 116//40 62//40 114//40
f 68//20 122//20 70//20
f 122//20 68//20 120//20
f 127//7 77//7 76//7
f 77//7 127//7 128//7
f 175//5 172//5 169//5
f 172//5 175//5 174//5
f 159//9 176//9 173//9
f 176//9 159//9 158//9
f 132//32 82//32 81//32
f 82//32 132//32 133//32
f 60//33 112//33 61//33
f 112//33 60//33 110//33
f 65//16 113//16 63//16
f 113//16 65//16 115//16
f 63//6 110//6 60//6
f 110//6 63//6 113//6
f 177//43 178//43 179//43
f 178//43 177//43 180//43
f 181//17 182//17 183//17
f 182//17 181//17 184//17
f 185//64 183//64 186//64
f 183//64 185//64 181//64
f 124//22 74//22 73//22
f 74//22 124//22 125//22
f 130//30 80//30 79//30
f 80//30 130//30 131//30
f 187//49 188//49 189//49
f 188//49 187//49 190//49
f 179//59 191//59 192//59
f 191//59 179//59 178//59
f 184//65 165//65 182//65
f 165//65 184//65 166//65
f 193//56 186//56 194//56
f 186//56 193//56 185//56
f 67//47 115//47 65//47
f 115//47 67//47 117//47
f 69//35 117//35 67//35
f 117//35 69//35 119//35
f 195//51 163//51 196//51
f 163//51 195//51 161//51
f 197//48 198//48 199//48
f 198//48 197//48 200//48
f 190//50 196//50 188//50
f 196//50 190//50 195//50
f 201//60 199//60 202//60
f 199//60 201//60 197//60
f 201//42 203//42 204//42
f 203//42 201//42 202//42
f 204//54 180//54 177//54
f 180//54 204//54 203//54
f 192//52 205//52 206//52
f 205//52 192//52 191//52
f 206//66 160//66 157//66
f 160//53 206//53 205//53
f 207//55 194//55 208//55
f 194//55 207//55 193//55
f 164//38 208//38 162//38
f 208//38 164//38 207//38
f 200//67 189//67 198//67
f 189//67 200//67 187//67
f 35//68 168//68 135//68
f 168//68 35//68 34//68
f 156//69 121//69 166//69
f 121//69 156//69 136//69
f 39//27 157//27 159//27
f 42//27 159//27 173//27
f 11//27 173//27 175//27
f 14//27 175//27 169//27
f 157//27 46//27 48//27
f 157//27 154//27 46//27
f 157//27 152//27 154//27
f 157//27 4//27 152//27
f 157//27 2//27 4//27
f 157//27 55//27 2//27
f 157//27 25//27 55//27
f 102//27 169//27 171//27
f 157//27 28//27 25//27
f 157//27 9//27 28//27
f 157//27 5//27 9//27
f 157//27 8//27 5//27
f 43//25 171//25 168//25
f 157//27 24//27 8//27
f 157//27 39//27 24//27
f 159//27 42//27 39//27
f 173//27 11//27 42//27
f 175//27 14//27 11//27
f 169//27 102//27 14//27
f 171//26 43//26 102//26
f 43//27 168//27 34//27
f 48//27 206//27 157//27
f 48//27 192//27 206//27
f 48//27 179//27 192//27
f 48//27 177//27 179//27
f 48//27 204//27 177//27
f 48//27 201//27 204//27
f 48//27 197//27 201//27
f 48//27 200//27 197//27
f 48//27 187//27 200//27
f 48//27 190//27 187//27
f 48//27 195//27 190//27
f 48//27 161//27 195//27
f 48//27 164//27 161//27
f 20//27 164//27 48//27
f 164//27 20//27 207//27
f 22//27 207//27 20//27
f 207//27 22//27 193//27
f 50//27 193//27 22//27
f 193//27 50//27 185//27
f 105//27 185//27 50//27
f 185//27 105//27 181//27
f 107//27 181//27 105//27
f 181//27 107//27 184//27
f 156//26 184//26 107//26
f 184//70 156//70 166//70
f 37//68 84//68 167//68
f 84//68 37//68 38//68
f 85//69 165//69 71//69
f 165//69 85//69 155//69
f 199//37 56//37 202//37
f 56//37 199//37 3//37
f 198//37 3//37 199//37
f 3//71 198//71 1//71
f 189//37 1//37 198//37
f 1//37 189//37 151//37
f 188//37 151//37 189//37
f 151//37 188//37 153//37
f 196//37 153//37 188//37
f 153//37 196//37 47//37
f 163//37 47//37 196//37
f 47//37 163//37 45//37
f 162//37 45//37 163//37
f 21//37 162//37 208//37
f 19//37 208//37 194//37
f 49//37 194//37 186//37
f 106//37 186//37 183//37
f 104//37 183//37 182//37
f 162//37 21//37 45//37
f 208//37 19//37 21//37
f 155//71 182//71 165//71
f 194//37 49//37 19//37
f 186//37 106//37 49//37
f 183//72 104//72 106//72
f 182//72 155//72 104//72
f 27//37 202//37 56//37
f 202//37 27//37 203//37
f 26//37 203//37 27//37
f 203//37 26//37 180//37
f 10//37 180//37 26//37
f 180//37 10//37 178//37
f 7//37 178//37 10//37
f 178//37 7//37 191//37
f 6//37 191//37 7//37
f 191//37 6//37 205//37
f 23//37 205//37 6//37
f 205//37 23//37 160//37
f 41//37 160//37 23//37
f 160//37 41//37 158//37
f 40//37 158//37 41//37
f 158//37 40//37 176//37
f 13//37 176//37 40//37
f 176//37 13//37 174//37
f 12//71 174//71 13//71
f 174//37 12//37 172//37
f 103//72 172//72 12//72
f 172//71 103//71 170//71
f 44//37 170//37 103//37
f 170//37 44//37 167//37
f 167//73 44//73 37//73
